<?xml version="1.0" standalone="no"?>
<!DOCTYPE svg PUBLIC "-//W3C//DTD SVG 20010904//EN"
 "http://www.w3.org/TR/2001/REC-SVG-20010904/DTD/svg10.dtd">
<svg version="1.0" xmlns="http://www.w3.org/2000/svg"
 width="360.000000pt" height="360.000000pt" viewBox="0 0 360.000000 360.000000"
 preserveAspectRatio="xMidYMid meet">

<g transform="translate(0.000000,360.000000) scale(0.100000,-0.100000)"
fill="#000000" stroke="none">
<path d="M2565 3530 c-143 -12 -233 -44 -359 -128 -140 -93 -295 -280 -361
-437 -16 -36 -31 -65 -34 -65 -3 0 -22 24 -41 53 -47 70 -208 231 -301 300
-159 119 -305 194 -479 244 -123 36 -271 36 -395 -1 -279 -82 -475 -258 -532
-479 -35 -136 -16 -327 52 -517 73 -202 257 -510 466 -779 57 -74 134 -178
170 -232 121 -181 262 -331 496 -532 120 -103 132 -116 397 -451 180 -227 205
-262 199 -285 -6 -23 -5 -25 11 -12 9 8 18 12 20 10 1 -2 29 -38 61 -79 33
-41 61 -77 62 -79 2 -2 6 -2 9 2 3 3 -20 39 -52 79 -31 40 -62 79 -67 85 -6 9
-5 23 3 43 22 54 34 56 84 10 32 -30 50 -40 65 -35 10 3 53 42 96 86 59 62 81
79 96 74 14 -5 18 -12 13 -31 -13 -53 26 -20 120 102 53 69 177 223 274 341
581 706 811 1095 897 1518 11 51 17 131 17 220 0 125 -4 157 -36 300 -27 122
-46 181 -81 251 -92 188 -284 344 -509 413 -73 23 -180 26 -361 11z m-1545
-63 c117 -36 256 -105 380 -188 107 -71 303 -260 364 -350 36 -54 37 -58 26
-100 -6 -24 -23 -61 -36 -82 l-25 -38 -39 80 c-152 315 -469 603 -758 691 -40
12 -72 24 -72 26 0 7 65 -9 160 -39z m1450 7 c-41 -19 -97 -49 -125 -67 -136
-86 -307 -252 -398 -386 -73 -110 -117 -166 -117 -150 0 27 67 168 113 236
127 191 318 337 507 387 92 24 99 17 20 -20z m448 9 c30 -8 52 -17 50 -19 -8
-7 -159 23 -170 34 -14 14 42 7 120 -15z m-167 8 c22 -8 21 -9 -16 -15 -156
-26 -327 -94 -452 -181 -73 -51 -89 -58 -41 -17 100 86 213 151 328 189 93 31
144 38 181 24z m-1866 -58 c227 -56 489 -264 676 -535 78 -114 140 -237 130
-258 -11 -19 -3 -40 14 -40 13 0 35 -77 35 -126 0 -23 24 -43 37 -31 3 3 5 25
5 49 -1 62 52 268 68 268 14 0 33 -89 36 -170 2 -47 7 -84 11 -82 16 5 8 166
-11 231 l-20 63 29 57 c38 72 237 274 360 365 153 113 324 186 475 205 121 16
148 8 221 -57 223 -202 363 -580 328 -891 -20 -181 -55 -301 -139 -478 -128
-268 -286 -498 -605 -878 -303 -360 -415 -496 -454 -547 -24 -32 -45 -58 -47
-58 -2 0 -56 25 -121 55 -233 110 -538 312 -614 406 -70 88 -248 338 -366 514
-310 467 -502 828 -601 1135 -53 163 -66 237 -57 329 19 203 92 338 229 425
112 72 229 87 381 49z m2183 -60 c167 -83 347 -317 398 -516 27 -104 6 -310
-52 -512 -116 -403 -442 -959 -883 -1505 -47 -58 -95 -116 -107 -130 -76 -88
-124 -142 -171 -194 l-54 -58 -62 23 c-34 12 -65 25 -69 28 -11 9 50 87 337
425 577 683 765 979 867 1365 27 104 30 132 31 271 1 138 -2 167 -27 262 -56
222 -146 390 -283 531 -55 57 -56 60 -28 53 17 -3 63 -23 103 -43z m-2768
-104 c-48 -90 -62 -172 -63 -364 0 -147 3 -187 26 -296 42 -201 148 -493 258
-712 22 -43 35 -76 30 -72 -20 12 -218 317 -279 430 -208 379 -244 690 -105
905 32 50 152 175 160 167 1 -2 -10 -28 -27 -58z m1466 -610 c-9 -20 -15 -27
-16 -16 0 20 19 61 26 54 2 -2 -2 -19 -10 -38z m-1440 -81 c106 -323 410 -859
755 -1338 38 -52 78 -108 90 -125 31 -45 -165 160 -304 318 -131 149 -191 244
-311 492 -55 114 -79 170 -156 365 -10 25 -34 104 -55 175 -20 72 -38 138 -41
148 -3 9 -3 17 0 17 2 0 12 -24 22 -52z m3190 -79 c-11 -181 -64 -370 -155
-564 -147 -311 -328 -573 -769 -1114 -120 -146 -240 -294 -266 -328 -31 -40
-53 -60 -62 -56 -17 6 -18 6 87 123 415 465 824 1072 997 1480 61 144 123 323
135 387 2 10 10 53 17 96 8 42 16 77 18 77 3 0 2 -45 -2 -101z m-1811 -1864
c55 -32 146 -79 202 -105 l102 -47 -35 -49 c-19 -27 -39 -50 -43 -52 -7 -2
-296 259 -361 326 -14 14 -13 14 10 0 14 -8 70 -41 125 -73z m28 -134 c97 -90
177 -165 177 -168 0 -2 -11 -20 -24 -39 l-24 -36 -103 129 c-57 70 -131 162
-164 203 -34 41 -65 81 -70 89 -16 27 26 -9 208 -178z m367 -52 c30 -11 57
-23 59 -25 7 -7 -121 -134 -134 -134 -6 0 -26 15 -44 34 l-33 34 38 56 c22 31
44 56 49 56 6 0 35 -9 65 -21z"/>
</g>
</svg>
